HIERARCHY
ROOT Hips
{
  OFFSET 0 89.5177 0.535
  CHANNELS 6 Xposition Yposition Zposition Zrotation Xrotation Yrotation
  JOINT Spine
  {
    OFFSET 12.0259 -0.162855 1.69034e-005
    CHANNELS 3 Zrotation Xrotation Yrotation
    JOINT Spine1
    {
      OFFSET 15.3169 -0.0121922 0
      CHANNELS 3 Zrotation Xrotation Yrotation
      JOINT Spine2
      {
        OFFSET 15.3176 -0.0121908 0
        CHANNELS 3 Zrotation Xrotation Yrotation
        JOINT Neck
        {
          OFFSET 19.9142 1.56338 0
          CHANNELS 3 Zrotation Xrotation Yrotation
          JOINT Head
          {
            OFFSET 6.92651 0 0
            CHANNELS 3 Zrotation Xrotation Yrotation
            End Site
            {
              OFFSET 20.7666 0 0
            }
          }
          JOINT LeftShoulder
          {
            OFFSET -6.20654 0.708824 7.28219
            CHANNELS 3 Zrotation Xrotation Yrotation
            JOINT LeftArm
            {
              OFFSET 14.108 0 -1.52588e-005
              CHANNELS 3 Zrotation Xrotation Yrotation
              JOINT LeftForeArm
              {
                OFFSET 28.5802 0 0
                CHANNELS 3 Zrotation Xrotation Yrotation
                JOINT LeftHand
                {
                  OFFSET 27.092 0 0
                  CHANNELS 3 Zrotation Xrotation Yrotation
                  End Site
                  {
                    OFFSET 9.55928 -0.186424 0.145352
                  }
                }
              }
            }
          }
          JOINT RightShoulder
          {
            OFFSET -6.20654 0.708866 -7.28218
            CHANNELS 3 Zrotation Xrotation Yrotation
            JOINT RightArm
            {
              OFFSET 14.108 0 1.52588e-005
              CHANNELS 3 Zrotation Xrotation Yrotation
              JOINT RightForeArm
              {
                OFFSET 28.5802 0 0
                CHANNELS 3 Zrotation Xrotation Yrotation
                JOINT RightHand
                {
                  OFFSET 27.092 0 0
                  CHANNELS 3 Zrotation Xrotation Yrotation
                  End Site
                  {
                    OFFSET 9.55929 -0.186417 -0.145354
                  }
                }
              }
            }
          }
        }
      }
    }
  }
  JOINT LeftUpLeg
  {
    OFFSET 0.005 -0.535 8.837
    CHANNELS 3 Zrotation Xrotation Yrotation
    JOINT LeftLeg
    {
      OFFSET 39.9035 0 0
      CHANNELS 3 Zrotation Xrotation Yrotation
      JOINT LeftFoot
      {
        OFFSET 39.6689 0 0
        CHANNELS 3 Zrotation Xrotation Yrotation
        JOINT LeftToe
        {
          OFFSET 10.1624 13.6296 0
          CHANNELS 3 Zrotation Xrotation Yrotation
          End Site
          {
            OFFSET 8.38147 0 0
          }
        }
      }
    }
  }
  JOINT RightUpLeg
  {
    OFFSET 0.005 -0.535 -8.837
    CHANNELS 3 Zrotation Xrotation Yrotation
    JOINT RightLeg
    {
      OFFSET 39.9035 0 0
      CHANNELS 3 Zrotation Xrotation Yrotation
      JOINT RightFoot
      {
        OFFSET 39.6689 0 0
        CHANNELS 3 Zrotation Xrotation Yrotation
        JOINT RightToe
        {
          OFFSET 10.1624 13.6296 0
          CHANNELS 3 Zrotation Xrotation Yrotation
          End Site
          {
            OFFSET 8.38147 0 0
          }
        }
      }
    }
  }
}
MOTION
Frames:	18
Frame Time:	0.0333333
139.386 82.5081 -262.018 -125.811 82.5169 -142.821 2.25137 0.430041 0.220176 4.50127 0.868875 0.423448 4.50127 0.868875 0.423439 -8.3043e-012 -9.0191e-006 -5.27751e-005 -0.22282 7.50774 -4.28908 -172.349 -22.3683 -70.5567 -27.1587 -5.89781 54.1652 -26.1417 0 2.48481e-015 -23.7124 -57.7487 -27.3414 -176.382 13.2605 74.5883 -44.1146 6.3084 -53.507 -9.5015 9.54166e-015 1.59028e-015 -59.02 68.6635 61.7121 -26.3065 5.20938 -161.012 -27.467 -3.18055e-015 2.38542e-015 6.65148 7.25402 -17.353 90 5.68728e-021 1.59028e-015 -28.9396 -15.6043 160.23 -44.9355 0 -7.95139e-016 22.249 -4.63459 10.2326 90 1.66827e-020 -0 
137.628 82.7807 -261.976 -135.281 83.3183 -133.722 2.15224 0.496348 0.34793 4.30168 1.00588 0.677155 4.30168 1.00588 0.677146 -8.29794e-012 -9.0191e-006 -5.27751e-005 0.124981 8.5236 -4.66869 -172.519 -21.7936 -70.5221 -17.8466 -6.42996 58.1478 -20.3371 1.59028e-015 1.98785e-016 -24.0918 -56.753 -27.6405 -176.426 12.9986 74.4824 -35.5496 3.159 -53.751 -8.56937 0 -1.59028e-015 -59.3818 68.3324 62.0949 -24.0858 6.18479 -159.46 -22.4649 -3.18055e-015 5.96354e-015 4.33488 6.92067 -18.6154 90 -1.53556e-020 -1.59028e-015 -29.536 -16.7794 161.785 -44.8997 -6.36111e-015 -0 22.2202 -5.87566 8.66568 90 -2.04742e-020 -0 
135.909 83.1035 -262.01 -147.114 83.8475 -122.088 2.08363 0.489684 0.430209 4.16375 0.99515 0.84252 4.16375 0.99515 0.842511 -8.30112e-012 -9.0191e-006 -5.27751e-005 0.0969108 9.74721 -4.94922 -172.61 -21.5596 -70.5593 -10.2138 -5.2653 60.8605 -16.4034 -1.59028e-015 1.98785e-015 -23.2742 -56.2631 -26.7388 -176.43 12.8253 74.304 -29.4973 -0.688653 -52.6699 -8.05444 -6.36111e-015 5.96354e-016 -58.345 68.8228 60.9939 -21.2649 7.00046 -158.488 -16.6399 -6.36111e-015 2.38542e-015 2.39577 6.22495 -19.7986 90 -2.48481e-017 -3.18055e-015 -29.4217 -16.2418 164.035 -44.4977 0 -1.59028e-015 22.0718 -5.58755 7.21843 90 -3.79152e-021 -0 
134.39 83.5056 -262.135 -156.848 84.1186 -112.155 2.09515 0.342334 0.415009 4.18787 0.700081 0.817391 4.18787 0.700081 0.817382 -8.31066e-012 -9.0191e-006 -5.27751e-005 -0.438218 11.3559 -5.21184 -172.717 -21.3976 -70.6944 -5.33213 -2.14133 62.4509 -14.7119 3.18055e-015 7.95139e-016 -21.3855 -56.3689 -24.7906 -176.327 12.9076 73.9658 -25.4299 -4.44435 -50.812 -8.07221 0 3.77691e-015 -56.8349 69.5405 59.3963 -20.3668 5.95492 -158.496 -16.2569 -3.18055e-015 -1.59028e-015 4.95339 4.96732 -17.925 90 -1.98785e-016 -0 -28.85 -14.7506 166.078 -43.7316 0 2.38542e-015 21.7548 -4.4778 6.00805 90 1.51661e-020 4.77083e-015 
133.184 83.9934 -262.283 -158.314 83.97 -110.075 2.14517 0.0314872 0.354496 4.29011 0.0766989 0.707709 4.29011 0.0766986 0.707699 -8.3043e-012 -9.0191e-006 -5.27751e-005 -1.25808 12.7159 -5.65167 -172.688 -21.3586 -70.5924 -3.66919 1.75089 63.3823 -14.6948 -3.18055e-015 -3.97569e-016 -19.2042 -56.8894 -22.5832 -176.153 13.3555 73.77 -22.1105 -7.16696 -48.7922 -8.39094 -3.18055e-015 3.57812e-015 -55.9584 69.9904 58.4728 -19.4331 3.81852 -160.022 -16.4164 4.77083e-015 1.78906e-015 6.4896 4.29251 -15.0444 90 6.95746e-016 -0 -28.4246 -14.3239 166.853 -42.6476 -1.59028e-015 -0 21.2993 -3.91383 5.05855 90 0 3.18055e-015 
132.177 84.537 -262.447 -157.44 83.6733 -110.3 2.15694 -0.205484 0.303836 4.31497 -0.398905 0.61534 4.31497 -0.398906 0.61533 -8.31384e-012 -9.0191e-006 -5.27751e-005 -1.84997 13.4312 -6.06041 -172.646 -21.3675 -70.4944 -3.17579 4.5053 64.3035 -15.0027 0 1.19271e-015 -17.0929 -57.1877 -20.4314 -175.982 13.9132 73.7169 -18.8107 -9.35625 -46.9597 -9.08894 3.18055e-015 -2.78299e-015 -55.7672 70.2925 58.2746 -19.0579 2.74812 -162.239 -17.3183 -1.59028e-015 3.97569e-015 7.63641 4.70529 -12.9063 90 -7.70291e-016 -0 -28.0695 -14.6381 167.16 -41.211 -4.77083e-015 7.95139e-016 20.6301 -3.82877 4.21892 90 -1.51661e-021 1.59028e-015 
131.306 85.1219 -262.624 -161.054 83.7584 -105.979 2.14727 -0.231446 0.231356 4.29551 -0.45358 0.471371 4.29551 -0.45358 0.471362 -8.31384e-012 -9.0191e-006 -5.27751e-005 -1.86968 13.8639 -6.55441 -172.452 -21.5887 -70.1955 -3.1603 5.74734 64.9441 -15.3305 -1.59028e-015 1.19271e-015 -15.2082 -57.2573 -18.4996 -175.979 14.1684 73.9775 -14.7764 -10.379 -45.6459 -9.44544 0 5.56597e-015 -55.7962 70.6714 58.3094 -18.9059 3.5885 -164.674 -18.9821 1.59028e-015 -6.75868e-015 9.12359 5.21689 -11.0553 90 -1.14301e-015 -3.97569e-016 -27.3947 -14.2956 167.631 -39.4751 0 -0 19.7066 -3.65983 3.46886 90 -4.54982e-021 -0 
130.498 85.6557 -262.796 -167.325 83.9503 -99.1792 2.11796 -0.157468 0.174741 4.23641 -0.307891 0.355328 4.23641 -0.307892 0.355318 -8.30748e-012 -9.0191e-006 -5.27751e-005 -1.48439 14.0731 -7.04846 -172.298 -21.7163 -69.9223 -3.27066 6.06377 65.3403 -16.1375 3.18055e-015 7.15625e-015 -14.1357 -57.5309 -17.4173 -176.114 14.102 74.4216 -11.2972 -11.0157 -45.013 -9.53382 -1.59028e-015 4.77083e-015 -56.2066 70.8124 58.7447 -19.1635 5.92445 -166.894 -21.4803 0 2.18663e-015 10.958 5.3701 -8.88921 90 -7.95139e-016 7.95139e-016 -26.5384 -13.5969 168.363 -37.684 4.77083e-015 2.38542e-015 18.727 -3.383 2.78984 90 -1.51661e-020 -0 
129.752 86.0842 -262.965 -171.99 84.0678 -94.2447 2.08905 -0.105231 0.154456 4.17838 -0.204283 0.31279 4.17838 -0.204284 0.312781 -8.31384e-012 -9.0191e-006 -5.27751e-005 -1.05067 14.2998 -7.39829 -172.164 -21.9131 -69.7573 -4.69253 5.85364 65.5495 -17.405 -1.59028e-015 -3.97569e-016 -14.2793 -58.0138 -17.595 -176.281 13.8825 74.8411 -9.09559 -11.3604 -44.9592 -9.38139 0 6.75868e-015 -56.205 71.0269 58.7442 -19.7681 8.09487 -168.628 -24.5291 3.18055e-015 3.97569e-016 11.8621 5.28694 -8.02385 90 3.26131e-016 -0 -25.7592 -13.4041 169.077 -36.0653 -3.18056e-015 -0 17.8379 -3.30498 2.15324 90 -1.2512e-020 -1.59028e-015 
129.068 86.4035 -263.121 -174.818 84.2463 -91.3247 2.07561 -0.0993787 0.148899 4.15147 -0.192821 0.301444 4.15147 -0.192822 0.301435 -8.31066e-012 -9.0191e-006 -5.27751e-005 -0.990587 14.4633 -7.59271 -172.242 -21.7216 -69.7901 -6.49044 5.56548 65.5463 -19.6775 -3.18055e-015 -5.1684e-015 -15.2854 -58.6247 -18.6682 -176.396 13.6737 75.08 -8.80473 -11.9931 -45.4546 -9.62812 -1.59028e-015 -9.54166e-015 -56.1423 71.2029 58.6786 -19.8988 9.28651 -170.164 -27.0147 1.59028e-015 3.97569e-016 12.5291 4.98864 -7.54129 90 -6.95746e-016 -1.59028e-015 -24.9668 -13.4404 169.768 -34.728 -3.18056e-015 -2.38542e-015 17.126 -3.37988 1.59068 90 6.82473e-021 4.77083e-015 
128.422 86.5769 -263.309 -178.018 84.3866 -88.22 2.05743 -0.112561 0.170517 4.1152 -0.218449 0.345111 4.1152 -0.21845 0.345102 -8.3043e-012 -9.0191e-006 -5.27751e-005 -1.09662 14.5058 -7.79078 -172.191 -22.0188 -69.9071 -9.56975 4.368 65.2968 -21.5039 3.18055e-015 2.78299e-015 -16.3775 -59.3144 -19.8397 -176.475 13.5066 75.2262 -9.7953 -12.3848 -46.3766 -10.452 1.59028e-015 -1.19271e-015 -56.11 71.4986 58.6446 -19.7745 9.70966 -171.357 -28.8638 -1.59028e-015 -2.38542e-015 13.3736 5.15738 -7.76487 90 8.94531e-016 -7.95139e-016 -24.3702 -13.2061 170.614 -33.8783 -1.59028e-015 7.95139e-016 16.6426 -3.26549 1.08702 90 7.58303e-021 3.18055e-015 
127.791 86.6336 -263.503 178.28 84.5028 -84.8112 2.02084 -0.133616 0.2095 4.04216 -0.259284 0.423729 4.04216 -0.259284 0.42372 -8.30748e-012 -9.0191e-006 -5.27751e-005 -1.16913 14.668 -7.97705 -172.289 -22.0579 -70.1728 -12.5775 2.82955 64.7389 -23.251 7.95139e-016 -4.09993e-016 -17.8531 -59.4956 -21.3811 -176.507 13.3899 75.2343 -11.6512 -12.3807 -47.6198 -11.747 0 1.19271e-015 -56.6521 71.6337 59.2159 -19.3507 9.49792 -172.12 -29.842 -1.59028e-015 -1.19271e-015 14.179 5.78263 -8.67943 90 -2.48481e-017 -0 -23.9498 -13.0098 171.585 -33.4101 -1.59028e-015 -0 16.3327 -3.14706 0.592204 90 6.06643e-021 -3.18055e-015 
127.24 86.5846 -263.693 174.95 84.5942 -81.8349 1.97401 -0.17777 0.252341 3.94881 -0.346262 0.510805 3.94881 -0.346263 0.510796 -8.3043e-012 -9.0191e-006 -5.27751e-005 -1.23115 14.9093 -8.24314 -172.512 -21.9316 -70.612 -15.4522 0.680803 64.029 -24.4277 1.98785e-015 6.95746e-016 -19.564 -59.7856 -23.1812 -176.562 13.2126 75.2719 -13.4565 -11.2837 -49.1392 -12.9391 -3.18055e-015 3.18055e-015 -57.4225 71.7704 60.0271 -18.8234 9.18346 -172.607 -30.1271 1.59028e-015 1.59028e-015 14.4917 6.2123 -9.30711 90 2.48481e-016 -2.38542e-015 -23.7963 -13.0336 172.425 -33.3944 3.18056e-015 3.18056e-015 16.2436 -3.13995 0.146992 90 -3.79152e-021 -4.77083e-015 
126.778 86.5138 -263.897 170.54 84.6195 -77.6493 1.92946 -0.195824 0.244712 3.85977 -0.382819 0.49603 3.85977 -0.38282 0.49602 -8.30907e-012 -9.0191e-006 -5.27751e-005 -1.41198 15.1129 -8.46199 -172.785 -21.7721 -71.1554 -18.5202 -2.19147 62.9757 -24.6696 1.49089e-016 -1.34024e-015 -20.3718 -59.6757 -24.0152 -176.608 12.976 75.214 -15.3916 -9.95915 -50.8609 -14.6745 -1.59028e-015 -4.17448e-015 -59.0356 71.7653 61.7288 -17.5616 8.83867 -173.469 -28.9332 1.59028e-015 3.97569e-016 15.0862 5.88725 -7.1545 90 -2.48481e-017 -3.97569e-016 -23.8211 -12.8554 173.125 -33.5566 4.77083e-015 -0 16.2002 -3.08658 -0.262046 90 -8.34134e-021 -1.59028e-015 
126.403 86.4169 -264.085 167.337 84.6744 -74.7266 1.86569 -0.232028 0.252709 3.73244 -0.455227 0.512991 3.73244 -0.455227 0.512982 -8.31066e-012 -9.0191e-006 -5.27751e-005 -1.52352 15.3335 -8.67078 -173.07 -21.6496 -71.7663 -21.8953 -5.36583 61.7721 -24.1111 3.97569e-016 4.96962e-016 -21.2776 -59.2713 -24.9301 -176.68 12.7797 75.3065 -17.7073 -9.0094 -52.8204 -17.1793 -3.18055e-015 8.94531e-016 -61.2758 71.6964 64.0972 -16.5797 8.47877 -173.847 -27.8502 0 -1.98785e-015 15.9468 5.38996 -6.83117 90 1.2424e-017 -0 -23.8153 -12.5721 173.818 -33.7983 1.59028e-015 7.95139e-016 16.2166 -2.86758 -0.583003 90 9.85794e-021 -4.77083e-015 
126.076 86.3183 -264.199 167.196 84.9838 -75.0866 1.82484 -0.30545 0.314075 3.6514 -0.600263 0.637878 3.6514 -0.600263 0.637869 -8.30589e-012 -9.0191e-006 -5.27751e-005 -1.58467 15.5325 -8.85522 -173.318 -21.5958 -72.3425 -25.4061 -8.77505 60.4238 -23.2155 -1.59028e-015 6.55989e-015 -21.6102 -58.8902 -25.2469 -176.725 12.7256 75.4369 -20.6079 -8.87249 -54.6339 -20.672 1.59028e-015 3.47873e-015 -63.6775 71.6726 66.6397 -16.167 9.05235 -173.323 -27.2705 1.59028e-015 1.59028e-015 16.2169 4.02646 -6.82716 90 -2.46449e-021 7.95139e-016 -23.4166 -12.3834 174.637 -33.9073 -1.59028e-015 -2.38542e-015 16.2701 -2.39529 -0.807743 90 -9.09964e-021 1.59028e-015 
125.89 86.2724 -264.304 171.458 85.2118 -79.548 1.77506 -0.412692 0.308927 3.55245 -0.815133 0.630663 3.55245 -0.815133 0.630653 -8.31225e-012 -9.0191e-006 -5.27751e-005 -1.88657 15.4079 -8.76094 -173.588 -21.4851 -72.9414 -29.1629 -11.9177 58.8874 -22.621 2.38542e-015 -2.38542e-015 -22.0827 -58.5102 -25.7089 -176.739 12.7502 75.5261 -23.3235 -8.91591 -56.1558 -24.7838 3.18055e-015 -2.38542e-015 -65.8346 72.0621 68.9065 -16.6335 9.78404 -172.946 -27.8746 4.77083e-015 3.97569e-016 16.2315 4.06774 -6.75631 90 -1.93367e-020 -0 -23.2606 -12.554 174.908 -33.9919 -1.59028e-015 1.59028e-015 16.3278 -2.12196 -0.941913 90 1.13746e-021 -0 
125.827 86.3005 -264.397 179.982 85.317 -88.0093 1.69119 -0.5568 0.239892 3.38493 -1.1058 0.496298 3.38493 -1.1058 0.496289 -8.30589e-012 -9.0191e-006 -5.27751e-005 -2.25962 15.1862 -8.55629 -173.899 -21.3424 -73.6336 -33.2097 -14.1092 57.1603 -22.8745 -1.59028e-015 5.56597e-015 -22.7525 -58.5522 -26.4122 -176.745 12.8267 75.6334 -25.4294 -8.92998 -57.529 -29.0689 -3.18055e-015 -1.59028e-015 -67.6101 72.7672 70.7418 -16.7726 10.2791 -172.85 -27.6533 -1.59028e-015 7.95139e-016 15.9462 5.2177 -6.80993 90 7.01431e-021 1.59028e-015 -23.1715 -12.6352 174.805 -33.9272 0 -7.95139e-016 16.3378 -1.63265 -0.949122 90 1.81993e-020 1.59028e-015 
